<svg viewBox="0 0 200 200" xmlns="http://www.w3.org/2000/svg">
  <path fill="#0F62FE" d="M33.8,-60.4C41.6,-54,44.1,-40.5,54.2,-29.2C64.3,-18,81.9,-9,81.5,-0.2C81.2,8.6,63,17.2,53,28.7C43.1,40.2,41.4,54.6,34,59.4C26.5,64.3,13.3,59.7,-1.4,62.2C-16.1,64.7,-32.3,74.3,-45.6,72.8C-58.9,71.3,-69.3,58.7,-74.1,44.7C-78.9,30.7,-78,15.4,-72.1,3.4C-66.2,-8.5,-55.2,-17,-50.2,-30.6C-45.2,-44.2,-46.1,-62.8,-38.7,-69.4C-31.4,-76,-15.7,-70.6,-1.3,-68.3C13,-65.9,26,-66.8,33.8,-60.4Z" transform="translate(100 100)" />
</svg>